Dinish-Regular.ufo
<glyph name="ampersand" format="2">
  <advance width="611"/>
  <unicode hex="0026"/>
  <outline>
    <contour>
      <point x="551" y="67" type="curve"/>
      <point x="551" y="0" type="line"/>
      <point x="516" y="0" type="line" smooth="yes"/>
      <point x="456.191" y="0"/>
      <point x="438.343" y="43.969"/>
      <point x="408" y="88" type="curve"/>
      <point x="360.903" y="28.677"/>
      <point x="309.504" y="-10"/>
      <point x="231" y="-10" type="curve" smooth="yes"/>
      <point x="121.678" y="-10"/>
      <point x="60" y="60.005"/>
      <point x="60" y="167" type="curve" smooth="yes"/>
      <point x="60" y="260.791"/>
      <point x="131.354" y="331.987"/>
      <point x="196" y="391" type="curve"/>
      <point x="161.98" y="441.023"/>
      <point x="110" y="506.211"/>
      <point x="110" y="569" type="curve" smooth="yes"/>
      <point x="110" y="654.837"/>
      <point x="172.163" y="717"/>
      <point x="258" y="717" type="curve" smooth="yes"/>
      <point x="343.809" y="717"/>
      <point x="404" y="656.71"/>
      <point x="404" y="571" type="curve" smooth="yes"/>
      <point x="404" y="488.783"/>
      <point x="341.91" y="432.575"/>
      <point x="285" y="382" type="curve"/>
      <point x="412" y="201" type="line"/>
      <point x="485" y="299" type="line"/>
      <point x="534" y="257" type="line"/>
      <point x="451" y="145" type="line"/>
      <point x="487.778" y="90.444"/>
      <point x="487.991" y="67"/>
    </contour>
    <contour>
      <point x="179" y="571" type="curve" smooth="yes"/>
      <point x="179" y="527.774"/>
      <point x="222.894" y="470.437"/>
      <point x="247" y="436" type="curve"/>
      <point x="286.627" y="471.222"/>
      <point x="336" y="514.592"/>
      <point x="336" y="572" type="curve" smooth="yes"/>
      <point x="336" y="618.34"/>
      <point x="306.048" y="655"/>
      <point x="258" y="655" type="curve" smooth="yes"/>
      <point x="208.354" y="655"/>
      <point x="179" y="618.737"/>
    </contour>
    <contour>
      <point x="369" y="143" type="curve"/>
      <point x="233" y="338" type="line"/>
      <point x="185.956" y="296.187"/>
      <point x="130" y="237.141"/>
      <point x="130" y="170" type="curve" smooth="yes"/>
      <point x="130" y="103.758"/>
      <point x="166.254" y="54"/>
      <point x="236" y="54" type="curve" smooth="yes"/>
      <point x="295.009" y="54"/>
      <point x="336.05" y="99.493"/>
    </contour>
  </outline>
</glyph>
<glyph name="three" format="2">
  <advance width="506"/>
  <unicode hex="0033"/>
  <outline>
    <contour>
      <point x="62.01" y="175" type="line"/>
      <point x="137" y="175" type="line"/>
      <point x="136.723" y="99.698"/>
      <point x="171.034" y="56"/>
      <point x="249" y="56" type="curve" smooth="yes"/>
      <point x="343.698" y="56"/>
      <point x="365" y="124.834"/>
      <point x="365" y="206" type="curve" smooth="yes"/>
      <point x="365" y="279.828"/>
      <point x="319.927" y="333"/>
      <point x="244" y="333" type="curve" smooth="yes"/>
      <point x="207" y="333" type="line"/>
      <point x="207" y="400" type="line"/>
      <point x="243" y="400" type="line" smooth="yes"/>
      <point x="329.505" y="400"/>
      <point x="353" y="462.479"/>
      <point x="353" y="538" type="curve" smooth="yes"/>
      <point x="353" y="604.665"/>
      <point x="315.866" y="650"/>
      <point x="247" y="650" type="curve" smooth="yes"/>
      <point x="167.936" y="650"/>
      <point x="141.726" y="600.326"/>
      <point x="142" y="528" type="curve"/>
      <point x="71" y="528" type="line"/>
      <point x="71" y="547" type="line" smooth="yes"/>
      <point x="71" y="656.431"/>
      <point x="142.481" y="717"/>
      <point x="249" y="717" type="curve" smooth="yes"/>
      <point x="356.015" y="717"/>
      <point x="427" y="650.074"/>
      <point x="427" y="542" type="curve" smooth="yes"/>
      <point x="427" y="470.665"/>
      <point x="409.49" y="405.801"/>
      <point x="338" y="374" type="curve"/>
      <point x="423.568" y="343.038"/>
      <point x="439" y="264.273"/>
      <point x="439" y="183" type="curve" smooth="yes"/>
      <point x="439" y="65.887"/>
      <point x="365.824" y="-10"/>
      <point x="248" y="-10" type="curve" smooth="yes"/>
      <point x="129.58" y="-10"/>
      <point x="62.01" y="53.314"/>
      <point x="62.01" y="170.972" type="curve" smooth="yes"/>
    </contour>
  </outline>
</glyph>
<glyph name="R" format="2">
  <advance width="613"/>
  <unicode hex="0052"/>
  <anchor x="281" y="707" name="top"/>
  <outline>
    <contour>
      <point x="327" y="310" type="line"/>
      <point x="157" y="310" type="line"/>
      <point x="157" y="0" type="line"/>
      <point x="82" y="0" type="line"/>
      <point x="82" y="707" type="line"/>
      <point x="344" y="707" type="line" smooth="yes"/>
      <point x="469.603" y="707"/>
      <point x="557" y="638.718"/>
      <point x="557" y="508" type="curve" smooth="yes"/>
      <point x="557" y="410.473"/>
      <point x="501.786" y="338.437"/>
      <point x="406" y="317" type="curve"/>
      <point x="572" y="0" type="line"/>
      <point x="486" y="0" type="line"/>
    </contour>
    <contour>
      <point x="157" y="375" type="line"/>
      <point x="338" y="375" type="line" smooth="yes"/>
      <point x="422.797" y="375"/>
      <point x="482" y="417.719"/>
      <point x="482" y="507" type="curve" smooth="yes"/>
      <point x="482" y="598.748"/>
      <point x="425.072" y="639"/>
      <point x="338" y="639" type="curve" smooth="yes"/>
      <point x="157" y="639" type="line"/>
    </contour>
  </outline>
</glyph>
<glyph name="S" format="2">
  <advance width="559"/>
  <unicode hex="0053"/>
  <anchor x="274" y="707" name="top"/>
  <outline>
    <contour>
      <point x="34" y="200" type="curve"/>
      <point x="108" y="200" type="line"/>
      <point x="116.035" y="103.059"/>
      <point x="182.411" y="59"/>
      <point x="275" y="59" type="curve" smooth="yes"/>
      <point x="362.567" y="59"/>
      <point x="438" y="91.799"/>
      <point x="438" y="191" type="curve" smooth="yes"/>
      <point x="438" y="419.029"/>
      <point x="48" y="232.463"/>
      <point x="48" y="518" type="curve" smooth="yes"/>
      <point x="48" y="651.515"/>
      <point x="151.592" y="716"/>
      <point x="275" y="716" type="curve" smooth="yes"/>
      <point x="403.091" y="716"/>
      <point x="486.676" y="648.233"/>
      <point x="501" y="519" type="curve"/>
      <point x="427" y="519" type="line"/>
      <point x="421.415" y="608.926"/>
      <point x="359.711" y="651"/>
      <point x="274" y="651" type="curve" smooth="yes"/>
      <point x="191.973" y="651"/>
      <point x="121" y="614.084"/>
      <point x="121" y="523" type="curve" smooth="yes"/>
      <point x="121" y="309.626"/>
      <point x="512" y="485.748"/>
      <point x="512" y="196" type="curve" smooth="yes"/>
      <point x="512" y="53.376"/>
      <point x="398.526" y="-6"/>
      <point x="270" y="-6" type="curve" smooth="yes"/>
      <point x="134.734" y="-6"/>
      <point x="44.684" y="60.456"/>
    </contour>
  </outline>
</glyph>
<glyph name="U" format="2">
  <advance width="646"/>
  <unicode hex="0055"/>
  <anchor x="324" y="707" name="top"/>
  <outline>
    <contour>
      <point x="80" y="230" type="curve" smooth="yes"/>
      <point x="80" y="707" type="line"/>
      <point x="156" y="707" type="line"/>
      <point x="156" y="237" type="line" smooth="yes"/>
      <point x="156" y="134.465"/>
      <point x="218.318" y="60"/>
      <point x="324" y="60" type="curve" smooth="yes"/>
      <point x="427.564" y="60"/>
      <point x="492" y="136.484"/>
      <point x="492" y="237" type="curve" smooth="yes"/>
      <point x="492" y="707" type="line"/>
      <point x="566" y="707" type="line"/>
      <point x="566" y="230" type="line" smooth="yes"/>
      <point x="566" y="90.233"/>
      <point x="461.804" y="-6"/>
      <point x="324" y="-6" type="curve" smooth="yes"/>
      <point x="187.679" y="-6"/>
      <point x="80" y="91.115"/>
    </contour>
  </outline>
</glyph>
<glyph name="r" format="2">
  <advance width="345"/>
  <unicode hex="0072"/>
  <anchor x="190" y="519" name="top"/>
  <outline>
    <contour>
      <point x="77" y="519" type="line"/>
      <point x="145" y="519" type="line"/>
      <point x="145" y="450" type="line"/>
      <point x="171.965" y="500.077"/>
      <point x="226.429" y="526"/>
      <point x="282" y="526" type="curve" smooth="yes"/>
      <point x="294.388" y="526"/>
      <point x="306.777" y="525.026"/>
      <point x="319" y="523" type="curve"/>
      <point x="319" y="454" type="line"/>
      <point x="301.874" y="459.338"/>
      <point x="283.934" y="462"/>
      <point x="266" y="462" type="curve" smooth="yes"/>
      <point x="190.896" y="462"/>
      <point x="146" y="399.927"/>
      <point x="146" y="329" type="curve" smooth="yes"/>
      <point x="146" y="0" type="line"/>
      <point x="77" y="0" type="line"/>
    </contour>
  </outline>
</glyph>
<glyph name="s" format="2">
  <advance width="473"/>
  <unicode hex="0073"/>
  <anchor x="239" y="519" name="top"/>
  <outline>
    <contour>
      <point x="48" y="150" type="curve"/>
      <point x="116" y="150" type="line"/>
      <point x="116" y="79.234"/>
      <point x="178.319" y="53"/>
      <point x="239" y="53" type="curve" smooth="yes"/>
      <point x="296.364" y="53"/>
      <point x="364" y="75.588"/>
      <point x="364" y="144" type="curve" smooth="yes"/>
      <point x="364" y="294.22"/>
      <point x="56" y="172.079"/>
      <point x="56" y="378" type="curve" smooth="yes"/>
      <point x="56" y="480.549"/>
      <point x="145.448" y="526"/>
      <point x="237" y="526" type="curve" smooth="yes"/>
      <point x="330.271" y="526"/>
      <point x="426.1" y="485.491"/>
      <point x="425" y="378" type="curve"/>
      <point x="357" y="378" type="line"/>
      <point x="357" y="445.004"/>
      <point x="295.737" y="469"/>
      <point x="239" y="469" type="curve" smooth="yes"/>
      <point x="183.552" y="469"/>
      <point x="124" y="445.484"/>
      <point x="124" y="381" type="curve" smooth="yes"/>
      <point x="124" y="236.68"/>
      <point x="431" y="356.143"/>
      <point x="431" y="148" type="curve" smooth="yes"/>
      <point x="431" y="35.596"/>
      <point x="334.303" y="-6"/>
      <point x="236" y="-6" type="curve" smooth="yes"/>
      <point x="137.931" y="-6"/>
      <point x="46.941" y="40.177"/>
    </contour>
  </outline>
</glyph>
<glyph name="braceleft" format="2">
  <advance width="348"/>
  <unicode hex="007B"/>
  <outline>
    <contour>
      <point x="60" y="305" type="curve"/>
      <point x="60" y="372" type="line"/>
      <point x="117.332" y="374.156"/>
      <point x="132" y="400.821"/>
      <point x="132" y="455" type="curve" smooth="yes"/>
      <point x="132" y="645" type="line" smooth="yes"/>
      <point x="132" y="716.154"/>
      <point x="162.529" y="758"/>
      <point x="237" y="758" type="curve" smooth="yes"/>
      <point x="288" y="758" type="line"/>
      <point x="288" y="695" type="line"/>
      <point x="240.421" y="695"/>
      <point x="205" y="702.253"/>
      <point x="205" y="643" type="curve" smooth="yes"/>
      <point x="205" y="460" type="line" smooth="yes"/>
      <point x="205" y="406.557"/>
      <point x="200.302" y="357.905"/>
      <point x="143" y="338" type="curve"/>
      <point x="199.936" y="318.223"/>
      <point x="205" y="270.182"/>
      <point x="205" y="217" type="curve" smooth="yes"/>
      <point x="205" y="29" type="line" smooth="yes"/>
      <point x="205" y="-30.092"/>
      <point x="240.365" y="-24"/>
      <point x="288" y="-24" type="curve"/>
      <point x="288" y="-86" type="line"/>
      <point x="237" y="-86" type="line" smooth="yes"/>
      <point x="162.529" y="-86"/>
      <point x="132" y="-44.154"/>
      <point x="132" y="27" type="curve" smooth="yes"/>
      <point x="132" y="222" type="line" smooth="yes"/>
      <point x="132" y="276.179"/>
      <point x="117.332" y="302.844"/>
    </contour>
  </outline>
</glyph>
<glyph name="braceright" format="2">
  <advance width="348"/>
  <unicode hex="007D"/>
  <outline>
    <contour>
      <point x="60" y="-24" type="line"/>
      <point x="107.635" y="-24"/>
      <point x="143" y="-30.092"/>
      <point x="143" y="29" type="curve" smooth="yes"/>
      <point x="143" y="217" type="line" smooth="yes"/>
      <point x="143" y="270.182"/>
      <point x="148.064" y="318.223"/>
      <point x="205" y="338" type="curve"/>
      <point x="147.698" y="357.905"/>
      <point x="143" y="406.557"/>
      <point x="143" y="460" type="curve" smooth="yes"/>
      <point x="143" y="643" type="line" smooth="yes"/>
      <point x="143" y="702.253"/>
      <point x="107.579" y="695"/>
      <point x="60" y="695" type="curve"/>
      <point x="60" y="758" type="line"/>
      <point x="112" y="758" type="line" smooth="yes"/>
      <point x="185.948" y="758"/>
      <point x="216" y="715.357"/>
      <point x="216" y="645" type="curve" smooth="yes"/>
      <point x="216" y="455" type="line" smooth="yes"/>
      <point x="216" y="400.821"/>
      <point x="230.668" y="374.156"/>
      <point x="288" y="372" type="curve"/>
      <point x="288" y="305" type="line"/>
      <point x="230.668" y="302.844"/>
      <point x="216" y="276.179"/>
      <point x="216" y="222" type="curve" smooth="yes"/>
      <point x="216" y="27" type="line" smooth="yes"/>
      <point x="216" y="-43.357"/>
      <point x="185.948" y="-86"/>
      <point x="112" y="-86" type="curve" smooth="yes"/>
      <point x="60" y="-86" type="line"/>
    </contour>
  </outline>
</glyph>
<glyph name="asciitilde" format="2">
  <advance width="524"/>
  <unicode hex="007E"/>
  <outline>
    <contour>
      <point x="177" y="283" type="curve" smooth="yes"/>
      <point x="137.714" y="283"/>
      <point x="116.403" y="251.24"/>
      <point x="98" y="221" type="curve"/>
      <point x="48" y="252" type="line"/>
      <point x="72.471" y="306.203"/>
      <point x="115.499" y="347"/>
      <point x="178" y="347" type="curve" smooth="yes"/>
      <point x="246.322" y="347"/>
      <point x="289.566" y="283"/>
      <point x="345" y="283" type="curve" smooth="yes"/>
      <point x="387.401" y="283"/>
      <point x="406.06" y="310.47"/>
      <point x="425" y="344" type="curve"/>
      <point x="475" y="312" type="line"/>
      <point x="449.807" y="259.916"/>
      <point x="405.187" y="217"/>
      <point x="344" y="217" type="curve" smooth="yes"/>
      <point x="272.739" y="217"/>
      <point x="230.703" y="283"/>
    </contour>
  </outline>
</glyph>
<glyph name="registered" format="2">
  <advance width="506"/>
  <unicode hex="00AE"/>
  <outline>
    <contour>
      <point x="60" y="510" type="curve" smooth="yes"/>
      <point x="60" y="619.866"/>
      <point x="140.812" y="706"/>
      <point x="252" y="706" type="curve" smooth="yes"/>
      <point x="364.287" y="706"/>
      <point x="446" y="621.594"/>
      <point x="446" y="510" type="curve" smooth="yes"/>
      <point x="446" y="397.886"/>
      <point x="365.161" y="313"/>
      <point x="252" y="313" type="curve" smooth="yes"/>
      <point x="140.603" y="313"/>
      <point x="60" y="400.216"/>
    </contour>
    <contour>
      <point x="412" y="510" type="curve" smooth="yes"/>
      <point x="412" y="603.641"/>
      <point x="347.074" y="674"/>
      <point x="252" y="674" type="curve" smooth="yes"/>
      <point x="156.258" y="674"/>
      <point x="95" y="603.222"/>
      <point x="95" y="510" type="curve" smooth="yes"/>
      <point x="95" y="416.375"/>
      <point x="155.545" y="345"/>
      <point x="252" y="345" type="curve" smooth="yes"/>
      <point x="347.223" y="345"/>
      <point x="412" y="416.447"/>
    </contour>
    <contour>
      <point x="181" y="621" type="line"/>
      <point x="265" y="621" type="line" smooth="yes"/>
      <point x="306.449" y="621"/>
      <point x="336" y="599.634"/>
      <point x="336" y="556" type="curve" smooth="yes"/>
      <point x="336" y="526.454"/>
      <point x="323.882" y="506.703"/>
      <point x="296" y="496" type="curve"/>
      <point x="342" y="401" type="line"/>
      <point x="302" y="401" type="line"/>
      <point x="259" y="492" type="line"/>
      <point x="218" y="492" type="line"/>
      <point x="218" y="401" type="line"/>
      <point x="181" y="401" type="line"/>
    </contour>
    <contour>
      <point x="264" y="524" type="line" smooth="yes"/>
      <point x="285.688" y="524"/>
      <point x="301" y="532.572"/>
      <point x="301" y="556" type="curve" smooth="yes"/>
      <point x="301" y="579.428"/>
      <point x="285.688" y="588"/>
      <point x="264" y="588" type="curve" smooth="yes"/>
      <point x="218" y="588" type="line"/>
      <point x="218" y="524" type="line"/>
    </contour>
  </outline>
</glyph>
<glyph name="ordmasculine" format="2">
  <advance width="337"/>
  <unicode hex="00BA"/>
  <outline>
    <contour>
      <point x="42" y="570" type="curve" smooth="yes"/>
      <point x="42" y="632" type="line" smooth="yes"/>
      <point x="42" y="715.259"/>
      <point x="82.778" y="766"/>
      <point x="169" y="766" type="curve" smooth="yes"/>
      <point x="255.222" y="766"/>
      <point x="296" y="715.259"/>
      <point x="296" y="632" type="curve" smooth="yes"/>
      <point x="296" y="570" type="line" smooth="yes"/>
      <point x="296" y="486.741"/>
      <point x="255.222" y="436"/>
      <point x="169" y="436" type="curve" smooth="yes"/>
      <point x="82.778" y="436"/>
      <point x="42" y="486.741"/>
    </contour>
    <contour>
      <point x="230" y="570" type="curve" smooth="yes"/>
      <point x="230" y="632" type="line" smooth="yes"/>
      <point x="230" y="673.92"/>
      <point x="215.87" y="707"/>
      <point x="169" y="707" type="curve" smooth="yes"/>
      <point x="122.13" y="707"/>
      <point x="108" y="673.92"/>
      <point x="108" y="632" type="curve" smooth="yes"/>
      <point x="108" y="570" type="line" smooth="yes"/>
      <point x="108" y="527.822"/>
      <point x="122.211" y="496"/>
      <point x="169" y="496" type="curve" smooth="yes"/>
      <point x="215.789" y="496"/>
      <point x="230" y="527.822"/>
    </contour>
  </outline>
</glyph>
<glyph name="onehalf" format="2">
  <advance width="736"/>
  <unicode hex="00BD"/>
  <outline>
    <contour>
      <point x="101" y="632" type="line"/>
      <point x="27" y="575" type="line"/>
      <point x="27" y="651" type="line"/>
      <point x="101" y="707" type="line"/>
      <point x="172" y="707" type="line"/>
      <point x="172" y="280" type="line"/>
      <point x="101" y="280" type="line"/>
    </contour>
    <contour>
      <point x="454" y="53" type="line"/>
      <point x="596" y="246" type="line" smooth="yes"/>
      <point x="613.421" y="269.678"/>
      <point x="622" y="291.498"/>
      <point x="622" y="321" type="curve" smooth="yes"/>
      <point x="622" y="353.504"/>
      <point x="603.829" y="377"/>
      <point x="570" y="377" type="curve" smooth="yes"/>
      <point x="525.197" y="377"/>
      <point x="518" y="340.236"/>
      <point x="518" y="304" type="curve"/>
      <point x="451" y="304" type="line"/>
      <point x="451" y="319" type="line" smooth="yes"/>
      <point x="451" y="392.246"/>
      <point x="500.857" y="434"/>
      <point x="572" y="434" type="curve" smooth="yes"/>
      <point x="649.805" y="434"/>
      <point x="692" y="387.774"/>
      <point x="692" y="312" type="curve" smooth="yes"/>
      <point x="692" y="271.01"/>
      <point x="675.056" y="242.94"/>
      <point x="652" y="211" type="curve" smooth="yes"/>
      <point x="543" y="60" type="line"/>
      <point x="693" y="60" type="line"/>
      <point x="693" y="0" type="line"/>
      <point x="454" y="0" type="line"/>
    </contour>
    <contour>
      <point x="476" y="707" type="line"/>
      <point x="541" y="707" type="line"/>
      <point x="159" y="0" type="line"/>
      <point x="94" y="0" type="line"/>
    </contour>
  </outline>
</glyph>
<glyph name="Eth" format="2">
  <advance width="685"/>
  <unicode hex="00D0"/>
  <outline>
    <contour>
      <point x="617" y="436" type="curve" smooth="yes"/>
      <point x="617" y="270" type="line" smooth="yes"/>
      <point x="617" y="108.293"/>
      <point x="544.916" y="0"/>
      <point x="373" y="0" type="curve" smooth="yes"/>
      <point x="131" y="0" type="line"/>
      <point x="131" y="324" type="line"/>
      <point x="39" y="324" type="line"/>
      <point x="39" y="391" type="line"/>
      <point x="131" y="391" type="line"/>
      <point x="131" y="707" type="line"/>
      <point x="373" y="707" type="line" smooth="yes"/>
      <point x="545.576" y="707"/>
      <point x="617" y="597.95"/>
    </contour>
    <contour>
      <point x="542" y="433" type="line" smooth="yes"/>
      <point x="542" y="547.484"/>
      <point x="503.308" y="639"/>
      <point x="374" y="639" type="curve" smooth="yes"/>
      <point x="207" y="639" type="line"/>
      <point x="207" y="391" type="line"/>
      <point x="350" y="391" type="line"/>
      <point x="350" y="324" type="line"/>
      <point x="207" y="324" type="line"/>
      <point x="207" y="68" type="line"/>
      <point x="374" y="68" type="line" smooth="yes"/>
      <point x="499.865" y="68"/>
      <point x="542" y="151.965"/>
      <point x="542" y="266" type="curve" smooth="yes"/>
    </contour>
  </outline>
</glyph>
<glyph name="ccedilla" format="2">
  <advance width="515"/>
  <unicode hex="00E7"/>
  <outline>
    <contour>
      <point x="387" y="348" type="line"/>
      <point x="387" y="424.874"/>
      <point x="339.557" y="463"/>
      <point x="265" y="463" type="curve" smooth="yes"/>
      <point x="162.882" y="463"/>
      <point x="130" y="402.728"/>
      <point x="130" y="309" type="curve" smooth="yes"/>
      <point x="130" y="211" type="line" smooth="yes"/>
      <point x="130" y="117.813"/>
      <point x="161.685" y="56"/>
      <point x="264" y="56" type="curve" smooth="yes"/>
      <point x="338.952" y="56"/>
      <point x="387" y="93.421"/>
      <point x="387" y="171" type="curve"/>
      <point x="455" y="171" type="line"/>
      <point x="455" y="167" type="line" smooth="yes"/>
      <point x="455" y="78.272"/>
      <point x="401.934" y="16.948"/>
      <point x="316" y="-1" type="curve"/>
      <point x="266" y="-154" type="line"/>
      <point x="194" y="-154" type="line"/>
      <point x="251" y="-6" type="line"/>
      <point x="118.675" y="-1.558"/>
      <point x="60" y="80.482"/>
      <point x="60" y="207" type="curve" smooth="yes"/>
      <point x="60" y="313" type="line" smooth="yes"/>
      <point x="60" y="445.774"/>
      <point x="124.256" y="526"/>
      <point x="262" y="526" type="curve" smooth="yes"/>
      <point x="374.649" y="526"/>
      <point x="455" y="466.063"/>
      <point x="455" y="348" type="curve"/>
    </contour>
  </outline>
</glyph>
<glyph name="oslash" format="2">
  <advance width="517"/>
  <unicode hex="00F8"/>
  <outline>
    <contour>
      <point x="410" y="468" type="line"/>
      <point x="447.093" y="426.098"/>
      <point x="457" y="367.188"/>
      <point x="457" y="313" type="curve" smooth="yes"/>
      <point x="457" y="207" type="line" smooth="yes"/>
      <point x="457" y="77.588"/>
      <point x="396.331" y="-6"/>
      <point x="260" y="-6" type="curve" smooth="yes"/>
      <point x="218.009" y="-6"/>
      <point x="174.985" y="2.523"/>
      <point x="139" y="25" type="curve"/>
      <point x="105" y="-31" type="line"/>
      <point x="60" y="-31" type="line"/>
      <point x="110" y="50" type="line"/>
      <point x="71.395" y="92.13"/>
      <point x="60" y="151.565"/>
      <point x="60" y="207" type="curve" smooth="yes"/>
      <point x="60" y="313" type="line" smooth="yes"/>
      <point x="60" y="444.257"/>
      <point x="123.812" y="526"/>
      <point x="260" y="526" type="curve" smooth="yes"/>
      <point x="301.899" y="526"/>
      <point x="344.917" y="518.107"/>
      <point x="380" y="494" type="curve"/>
      <point x="412" y="546" type="line"/>
      <point x="457" y="546" type="line"/>
    </contour>
    <contour>
      <point x="148" y="114" type="curve"/>
      <point x="345" y="436" type="line"/>
      <point x="322.031" y="456.655"/>
      <point x="290.033" y="463"/>
      <point x="260" y="463" type="curve" smooth="yes"/>
      <point x="159.803" y="463"/>
      <point x="130" y="399.071"/>
      <point x="130" y="309" type="curve" smooth="yes"/>
      <point x="130" y="211" type="line" smooth="yes"/>
      <point x="130" y="178.062"/>
      <point x="134.078" y="144.185"/>
    </contour>
    <contour>
      <point x="370" y="403" type="curve"/>
      <point x="174" y="82" type="line"/>
      <point x="197.721" y="61.836"/>
      <point x="229.692" y="56"/>
      <point x="260" y="56" type="curve" smooth="yes"/>
      <point x="359.283" y="56"/>
      <point x="387" y="123.603"/>
      <point x="387" y="211" type="curve" smooth="yes"/>
      <point x="387" y="309" type="line" smooth="yes"/>
      <point x="387" y="340.791"/>
      <point x="383.921" y="373.961"/>
    </contour>
  </outline>
</glyph>
<glyph name="eogonek" format="2">
  <advance width="515"/>
  <unicode hex="0119"/>
  <outline>
    <component base="e"/>
    <contour>
      <point x="237" y="-100" type="curve"/>
      <point x="338" y="17" type="line"/>
      <point x="427" y="69" type="line"/>
      <point x="306" y="-105" type="line"/>
      <point x="340.539" y="-151.566"/>
      <point x="367.945" y="-155.113"/>
      <point x="423" y="-155" type="curve"/>
      <point x="423" y="-217" type="line"/>
      <point x="338.395" y="-217"/>
      <point x="265.539" y="-185.878"/>
    </contour>
  </outline>
</glyph>
<glyph name="eng" format="2">
  <advance width="534"/>
  <unicode hex="014B"/>
  <outline>
    <contour>
      <point x="77" y="519" type="line"/>
      <point x="145" y="519" type="line"/>
      <point x="145" y="456" type="line"/>
      <point x="177.143" y="505.292"/>
      <point x="228.888" y="525"/>
      <point x="286" y="525" type="curve" smooth="yes"/>
      <point x="400.493" y="525"/>
      <point x="459" y="451.584"/>
      <point x="459" y="341" type="curve" smooth="yes"/>
      <point x="459" y="0" type="line"/>
      <point x="388" y="0" type="line"/>
      <point x="388" y="331" type="line" smooth="yes"/>
      <point x="388" y="408.363"/>
      <point x="350.037" y="463"/>
      <point x="268" y="463" type="curve" smooth="yes"/>
      <point x="187.805" y="463"/>
      <point x="146" y="407.495"/>
      <point x="146" y="331" type="curve" smooth="yes"/>
      <point x="146" y="0" type="line"/>
      <point x="77" y="0" type="line"/>
    </contour>
    <contour>
      <point x="332" y="-173" type="curve" smooth="yes"/>
      <point x="283" y="-173" type="line"/>
      <point x="283" y="-110" type="line"/>
      <point x="362.623" y="-110"/>
      <point x="388" y="-90.882"/>
      <point x="388" y="0" type="curve"/>
      <point x="459" y="0" type="line"/>
      <point x="459" y="-116.447"/>
      <point x="419.839" y="-173"/>
    </contour>
  </outline>
</glyph>
<glyph name="uogonek" format="2">
  <advance width="534"/>
  <unicode hex="0173"/>
  <outline>
    <component base="u"/>
    <contour>
      <point x="178" y="-101" type="curve"/>
      <point x="300" y="9" type="line"/>
      <point x="405" y="42" type="line"/>
      <point x="247" y="-106" type="line"/>
      <point x="276.173" y="-144.04"/>
      <point x="308.945" y="-156.113"/>
      <point x="364" y="-156" type="curve"/>
      <point x="364" y="-218" type="line"/>
      <point x="279.395" y="-218"/>
      <point x="206.539" y="-186.878"/>
    </contour>
  </outline>
</glyph>
<glyph name="florin" format="2">
  <advance width="415"/>
  <unicode hex="0192"/>
  <outline>
    <contour>
      <point x="13" y="-88" type="line"/>
      <point x="89.011" y="-88"/>
      <point x="115.915" y="-85.857"/>
      <point x="128" y="-4" type="curve" smooth="yes"/>
      <point x="181" y="355" type="line"/>
      <point x="94" y="355" type="line"/>
      <point x="94" y="420" type="line"/>
      <point x="191" y="420" type="line"/>
      <point x="212" y="555" type="line" smooth="yes"/>
      <point x="227.068" y="651.778"/>
      <point x="265.637" y="707"/>
      <point x="370" y="707" type="curve" smooth="yes"/>
      <point x="402" y="707" type="line"/>
      <point x="402" y="638.979" type="line"/>
      <point x="387.982" y="638.979" type="line" smooth="yes"/>
      <point x="316.858" y="638.979"/>
      <point x="295.66" y="621.899"/>
      <point x="285" y="556" type="curve" smooth="yes"/>
      <point x="263" y="420" type="line"/>
      <point x="371" y="420" type="line"/>
      <point x="371" y="355" type="line"/>
      <point x="253" y="355" type="line"/>
      <point x="200" y="-2" type="line" smooth="yes"/>
      <point x="182.496" y="-119.905"/>
      <point x="143.111" y="-155.884"/>
      <point x="31.546" y="-155.884" type="curve" smooth="yes"/>
      <point x="13" y="-155.884" type="line"/>
    </contour>
  </outline>
</glyph>
<glyph name="caron" format="2">
  <advance width="512"/>
  <unicode hex="02C7"/>
  <outline>
    <contour>
      <point x="118" y="724" type="line"/>
      <point x="181" y="724" type="line"/>
      <point x="256" y="627" type="line"/>
      <point x="330" y="724" type="line"/>
      <point x="393" y="724" type="line"/>
      <point x="284" y="577" type="line"/>
      <point x="227" y="577" type="line"/>
    </contour>
  </outline>
</glyph>
<glyph name="ogonekcmb" format="2">
  <unicode hex="0328"/>
  <outline>
    <contour>
      <point x="-12" y="0" type="line"/>
      <point x="53.018" y="0" type="line"/>
      <point x="53.018" y="-2.555" type="line"/>
      <point x="-64" y="-105" type="line"/>
      <point x="-30.294" y="-150.863"/>
      <point x="-1.071" y="-155.383"/>
      <point x="53" y="-155" type="curve"/>
      <point x="53" y="-217" type="line"/>
      <point x="-31.492" y="-217"/>
      <point x="-104.671" y="-185.429"/>
      <point x="-133" y="-100" type="curve"/>
    </contour>
  </outline>
</glyph>
<glyph name="Djecyr" format="2">
  <advance width="594"/>
  <unicode hex="0402"/>
  <anchor x="297" y="707" name="top"/>
  <outline>
    <contour>
      <point x="348.109" y="64" type="line"/>
      <point x="414.975" y="64"/>
      <point x="456.109" y="81.756"/>
      <point x="456.109" y="141" type="curve" smooth="yes"/>
      <point x="456.109" y="246.26" type="line"/>
      <point x="526.109" y="246.26" type="line"/>
      <point x="526.109" y="137" type="line" smooth="yes"/>
      <point x="526.109" y="51.834"/>
      <point x="486.126" y="0"/>
      <point x="397.109" y="0" type="curve" smooth="yes"/>
      <point x="348.109" y="0" type="line"/>
    </contour>
    <contour>
      <point x="417.868" y="639" type="line"/>
      <point x="194" y="639" type="line"/>
      <point x="194" y="0" type="line"/>
      <point x="120" y="0" type="line"/>
      <point x="120" y="639" type="line"/>
      <point x="8" y="639" type="line"/>
      <point x="8" y="707" type="line"/>
      <point x="417.868" y="707" type="line"/>
    </contour>
    <contour>
      <point x="198.178" y="446" type="line"/>
      <point x="233.849" y="493.645"/>
      <point x="291.455" y="515"/>
      <point x="349.212" y="515" type="curve" smooth="yes"/>
      <point x="465.937" y="515"/>
      <point x="526.003" y="440.147"/>
      <point x="526.003" y="331" type="curve" smooth="yes"/>
      <point x="526.003" y="156" type="line"/>
      <point x="456.003" y="156" type="line"/>
      <point x="456.003" y="321" type="line" smooth="yes"/>
      <point x="456.003" y="398.127"/>
      <point x="416.079" y="453"/>
      <point x="331.241" y="453" type="curve" smooth="yes"/>
      <point x="248.22" y="453"/>
      <point x="194.003" y="397.265"/>
      <point x="194.003" y="321" type="curve"/>
      <point x="157.003" y="321" type="line"/>
      <point x="157.05" y="446.299" type="line"/>
    </contour>
  </outline>
</glyph>
<glyph name="Tshecyr" format="2">
  <advance width="594"/>
  <unicode hex="040B"/>
  <outline>
    <contour>
      <point x="417.868" y="639" type="line"/>
      <point x="194" y="639" type="line"/>
      <point x="194" y="0" type="line"/>
      <point x="120" y="0" type="line"/>
      <point x="120" y="639" type="line"/>
      <point x="8" y="639" type="line"/>
      <point x="8" y="707" type="line"/>
      <point x="417.868" y="707" type="line"/>
    </contour>
    <contour>
      <point x="198.178" y="446" type="line"/>
      <point x="233.849" y="493.645"/>
      <point x="291.455" y="515"/>
      <point x="349.212" y="515" type="curve" smooth="yes"/>
      <point x="465.937" y="515"/>
      <point x="526.003" y="440.147"/>
      <point x="526.003" y="331" type="curve" smooth="yes"/>
      <point x="526.003" y="0" type="line"/>
      <point x="456.003" y="0" type="line"/>
      <point x="456.003" y="321" type="line" smooth="yes"/>
      <point x="456.003" y="398.127"/>
      <point x="416.079" y="453"/>
      <point x="331.241" y="453" type="curve" smooth="yes"/>
      <point x="248.22" y="453"/>
      <point x="194.003" y="397.265"/>
      <point x="194.003" y="321" type="curve"/>
      <point x="157.003" y="321" type="line"/>
      <point x="157.05" y="446.299" type="line"/>
    </contour>
  </outline>
</glyph>
<glyph name="Icyr" format="2">
  <advance width="679"/>
  <unicode hex="0418"/>
  <anchor x="337" y="707" name="top"/>
  <outline>
    <contour>
      <point x="82" y="707" type="line"/>
      <point x="157" y="707" type="line"/>
      <point x="157" y="233.928" type="line" smooth="yes"/>
      <point x="157" y="194.408"/>
      <point x="156.106" y="161.831"/>
      <point x="150.977" y="124.441" type="curve"/>
      <point x="154.977" y="124.441" type="line"/>
      <point x="164.546" y="142.202"/>
      <point x="176.78" y="161.846"/>
      <point x="190.736" y="183.883" type="curve" smooth="yes"/>
      <point x="522" y="707" type="line"/>
      <point x="597" y="707" type="line"/>
      <point x="597" y="0" type="line"/>
      <point x="522" y="0" type="line"/>
      <point x="522" y="483.431" type="line" smooth="yes"/>
      <point x="522" y="523.223"/>
      <point x="523.731" y="553.925"/>
      <point x="528.129" y="593.184" type="curve"/>
      <point x="524.298" y="593.184" type="line"/>
      <point x="516.597" y="574.454"/>
      <point x="503.966" y="548.873"/>
      <point x="487.863" y="523.399" type="curve" smooth="yes"/>
      <point x="157" y="0" type="line"/>
      <point x="82" y="0" type="line"/>
    </contour>
  </outline>
</glyph>
<glyph name="Elcyr" format="2">
  <advance width="569"/>
  <unicode hex="041B"/>
  <outline>
    <contour>
      <point x="412" y="0" type="line"/>
      <point x="412" y="707" type="line"/>
      <point x="487" y="707" type="line"/>
      <point x="487" y="0" type="line"/>
    </contour>
    <contour>
      <point x="117" y="640" type="line"/>
      <point x="117" y="707" type="line"/>
      <point x="477" y="707" type="line"/>
      <point x="477" y="640" type="line"/>
    </contour>
    <contour>
      <point x="20" y="67" type="line"/>
      <point x="51.464" y="67"/>
      <point x="67.251" y="110.982"/>
      <point x="76.785" y="225.199" type="curve" smooth="yes"/>
      <point x="117" y="707" type="line"/>
      <point x="192" y="707" type="line"/>
      <point x="153.22" y="192.423" type="line" smooth="yes"/>
      <point x="142.891" y="55.364"/>
      <point x="100.773" y="-8"/>
      <point x="20" y="-8" type="curve"/>
    </contour>
  </outline>
</glyph>
<glyph name="Yucyr" format="2">
  <advance width="824"/>
  <unicode hex="042E"/>
  <outline>
    <contour>
      <point x="310" y="328" type="line"/>
      <point x="157" y="328" type="line"/>
      <point x="157" y="0" type="line"/>
      <point x="82" y="0" type="line"/>
      <point x="82" y="707" type="line"/>
      <point x="157" y="707" type="line"/>
      <point x="157" y="395" type="line"/>
      <point x="310" y="395" type="line"/>
    </contour>
    <contour>
      <point x="268" y="262" type="curve" smooth="yes"/>
      <point x="268" y="445" type="line" smooth="yes"/>
      <point x="268" y="620.101"/>
      <point x="354.698" y="716"/>
      <point x="513" y="716" type="curve" smooth="yes"/>
      <point x="670.389" y="716"/>
      <point x="757" y="619.805"/>
      <point x="757" y="445" type="curve" smooth="yes"/>
      <point x="757" y="262" type="line" smooth="yes"/>
      <point x="757" y="88.997"/>
      <point x="668.984" y="-8"/>
      <point x="512" y="-8" type="curve" smooth="yes"/>
      <point x="354.716" y="-8"/>
      <point x="268" y="87.956"/>
    </contour>
    <contour>
      <point x="682" y="258" type="curve" smooth="yes"/>
      <point x="682" y="442" type="line" smooth="yes"/>
      <point x="682" y="576.97"/>
      <point x="622.287" y="648"/>
      <point x="508.823" y="648" type="curve" smooth="yes"/>
      <point x="396.89" y="648"/>
      <point x="342" y="580.22"/>
      <point x="342" y="442" type="curve" smooth="yes"/>
      <point x="342" y="258" type="line" smooth="yes"/>
      <point x="342" y="128.072"/>
      <point x="400.789" y="60"/>
      <point x="513" y="60" type="curve" smooth="yes"/>
      <point x="623.913" y="60"/>
      <point x="682" y="128.055"/>
    </contour>
  </outline>
</glyph>
<glyph name="becyr" format="2">
  <advance width="522"/>
  <unicode hex="0431"/>
  <anchor x="268" y="707" name="top"/>
  <outline>
    <contour>
      <point x="77" y="213.784" type="curve" smooth="yes"/>
      <point x="77" y="435.643" type="line" smooth="yes"/>
      <point x="77" y="533.056"/>
      <point x="106.254" y="615.166"/>
      <point x="174.974" y="643.962" type="curve" smooth="yes"/>
      <point x="239.271" y="670.904"/>
      <point x="324.078" y="669.309"/>
      <point x="392.39" y="707" type="curve"/>
      <point x="392.39" y="638.718" type="line"/>
      <point x="331.652" y="608.401"/>
      <point x="266.662" y="611.955"/>
      <point x="208.68" y="583.97" type="curve" smooth="yes"/>
      <point x="167.295" y="563.996"/>
      <point x="146" y="495.489"/>
      <point x="146" y="436.45" type="curve" smooth="yes"/>
      <point x="146" y="406.958" type="line"/>
      <point x="176.12" y="462.638"/>
      <point x="225.827" y="486"/>
      <point x="287.785" y="486" type="curve" smooth="yes"/>
      <point x="415.284" y="486"/>
      <point x="462" y="388.045"/>
      <point x="462" y="273.631" type="curve" smooth="yes"/>
      <point x="462" y="207.371" type="line" smooth="yes"/>
      <point x="462" y="93.767"/>
      <point x="401.821" y="-6"/>
      <point x="275.08" y="-6" type="curve" smooth="yes"/>
      <point x="148.666" y="-6"/>
      <point x="77" y="81.657"/>
    </contour>
    <contour>
      <point x="392" y="211.381" type="curve" smooth="yes"/>
      <point x="392" y="269.622" type="line" smooth="yes"/>
      <point x="392" y="348.958"/>
      <point x="366.184" y="424"/>
      <point x="274.335" y="424" type="curve" smooth="yes"/>
      <point x="180.843" y="424"/>
      <point x="146" y="346.352"/>
      <point x="146" y="263.607" type="curve" smooth="yes"/>
      <point x="146" y="212.383" type="line" smooth="yes"/>
      <point x="146" y="130.58"/>
      <point x="186.685" y="56"/>
      <point x="276.892" y="56" type="curve" smooth="yes"/>
      <point x="368.013" y="56"/>
      <point x="392" y="133.828"/>
    </contour>
  </outline>
</glyph>
<glyph name="kacyr" format="2">
  <advance width="505"/>
  <unicode hex="043A"/>
  <anchor x="246" y="519" name="top"/>
  <outline>
    <contour>
      <point x="146" y="519" type="line"/>
      <point x="146" y="0" type="line"/>
      <point x="77" y="0" type="line"/>
      <point x="77" y="519" type="line"/>
    </contour>
    <contour>
      <point x="224.526" y="248.092" type="line"/>
      <point x="283.851" y="282.987" type="line"/>
      <point x="486" y="0" type="line"/>
      <point x="401" y="0" type="line"/>
    </contour>
    <contour>
      <point x="136.133" y="261.052" type="line"/>
      <point x="136.133" y="267.756" type="line"/>
      <point x="199.896" y="267.756" type="line"/>
      <point x="372.926" y="519" type="line"/>
      <point x="456.926" y="519" type="line"/>
      <point x="270.3" y="261.037" type="line"/>
    </contour>
    <contour>
      <point x="130" y="246" type="line"/>
      <point x="130" y="298" type="line"/>
      <point x="260.849" y="298" type="line"/>
      <point x="260.849" y="246" type="line"/>
    </contour>
  </outline>
</glyph>
<glyph name="encyr" format="2">
  <advance width="527"/>
  <unicode hex="043D"/>
  <anchor x="259" y="519" name="top"/>
  <outline>
    <component base="dotlessi" xOffset="-8"/>
    <component base="dotlessi" xOffset="294.701"/>
    <contour>
      <point x="100" y="246" type="line"/>
      <point x="100" y="298" type="line"/>
      <point x="420.828" y="298" type="line"/>
      <point x="420.828" y="246" type="line"/>
    </contour>
  </outline>
</glyph>
<glyph name="pecyr" format="2">
  <advance width="517"/>
  <unicode hex="043F"/>
  <anchor x="259" y="519" name="top"/>
  <outline>
    <component base="dotlessi" xOffset="-8"/>
    <component base="dotlessi" xOffset="284.701"/>
    <contour>
      <point x="90" y="467" type="line"/>
      <point x="90" y="519" type="line"/>
      <point x="410.828" y="519" type="line"/>
      <point x="410.828" y="467" type="line"/>
    </contour>
  </outline>
</glyph>
<glyph name="hardcyr" format="2">
  <advance width="579"/>
  <unicode hex="044A"/>
  <outline>
    <contour>
      <point x="518.371" y="142.334" type="curve" smooth="yes"/>
      <point x="518.371" y="52.355"/>
      <point x="457.145" y="0"/>
      <point x="351.923" y="0" type="curve" smooth="yes"/>
      <point x="196.219" y="0" type="line"/>
      <point x="196.219" y="52.1" type="line"/>
      <point x="338.461" y="51.85" type="line" smooth="yes"/>
      <point x="403.266" y="51.737"/>
      <point x="448.571" y="76.448"/>
      <point x="448.571" y="146.054" type="curve" smooth="yes"/>
      <point x="448.571" y="214.49"/>
      <point x="402.746" y="238.53"/>
      <point x="339.205" y="238.53" type="curve" smooth="yes"/>
      <point x="196.219" y="238.53" type="line"/>
      <point x="196.219" y="290.64" type="line"/>
      <point x="351.741" y="290.64" type="line" smooth="yes"/>
      <point x="451.98" y="290.64"/>
      <point x="518.371" y="231.55"/>
    </contour>
    <contour>
      <point x="151" y="519" type="line"/>
      <point x="221" y="519" type="line"/>
      <point x="221" y="0" type="line"/>
      <point x="151" y="0" type="line"/>
    </contour>
    <contour>
      <point x="0.759" y="467" type="line"/>
      <point x="0.759" y="519" type="line"/>
      <point x="193.768" y="519" type="line"/>
      <point x="193.768" y="467" type="line"/>
    </contour>
  </outline>
</glyph>
<glyph name="softcyr" format="2">
  <advance width="475"/>
  <unicode hex="044C"/>
  <outline>
    <component base="dotlessi" xOffset="-8"/>
    <contour>
      <point x="414.371" y="142.334" type="curve" smooth="yes"/>
      <point x="414.371" y="231.55"/>
      <point x="347.98" y="290.64"/>
      <point x="247.741" y="290.64" type="curve" smooth="yes"/>
      <point x="92.219" y="290.64" type="line"/>
      <point x="92.219" y="238.53" type="line"/>
      <point x="235.205" y="238.53" type="line" smooth="yes"/>
      <point x="298.746" y="238.53"/>
      <point x="344.571" y="214.49"/>
      <point x="344.571" y="146.054" type="curve" smooth="yes"/>
      <point x="344.571" y="76.448"/>
      <point x="299.266" y="51.737"/>
      <point x="234.461" y="51.85" type="curve" smooth="yes"/>
      <point x="92.219" y="52.1" type="line"/>
      <point x="92.219" y="0" type="line"/>
      <point x="247.923" y="0" type="line" smooth="yes"/>
      <point x="353.145" y="0"/>
      <point x="414.371" y="52.355"/>
    </contour>
  </outline>
</glyph>
<glyph name="yacyr" format="2">
  <advance width="501"/>
  <unicode hex="044F"/>
  <outline>
    <component base="dotlessi" xScale="-1" xOffset="508.371"/>
    <contour>
      <point x="200.027" y="283.492" type="line"/>
      <point x="190.564" y="238.53" type="line"/>
      <point x="105.668" y="253.859"/>
      <point x="64.1836" y="300.583"/>
      <point x="64.1836" y="380.874" type="curve" smooth="yes"/>
      <point x="64.1836" y="476.546"/>
      <point x="132.939" y="519"/>
      <point x="226.935" y="519" type="curve" smooth="yes"/>
      <point x="378.152" y="519" type="line"/>
      <point x="378.152" y="467.159" type="line"/>
      <point x="238.886" y="467.159" type="line" smooth="yes"/>
      <point x="177.687" y="467.159"/>
      <point x="133.983" y="443.908"/>
      <point x="133.983" y="377.898" type="curve" smooth="yes"/>
      <point x="133.983" y="312.212"/>
      <point x="179.511" y="290.64"/>
      <point x="239.63" y="290.64" type="curve" smooth="yes"/>
      <point x="378.152" y="290.64" type="line"/>
      <point x="378.152" y="238.53" type="line"/>
      <point x="185.166" y="238.53" type="line"/>
      <point x="267.665" y="267.079" type="line"/>
      <point x="138.33" y="0" type="line"/>
      <point x="60.8966" y="0" type="line"/>
    </contour>
  </outline>
</glyph>
<glyph name="ljecyr" format="2">
  <advance width="739"/>
  <unicode hex="0459"/>
  <outline>
    <contour>
      <point x="20.324" y="72" type="line"/>
      <point x="56.057" y="72"/>
      <point x="69.668" y="90.966"/>
      <point x="79.821" y="187.682" type="curve" smooth="yes"/>
      <point x="114.602" y="519" type="line"/>
      <point x="184" y="519" type="line"/>
      <point x="146.945" y="142.404" type="line" smooth="yes"/>
      <point x="138.037" y="51.865"/>
      <point x="84.779" y="0"/>
      <point x="20.324" y="0" type="curve"/>
    </contour>
    <contour>
      <point x="129" y="452" type="line"/>
      <point x="129" y="519" type="line"/>
      <point x="409" y="519" type="line"/>
      <point x="409" y="452" type="line"/>
    </contour>
    <contour>
      <point x="341" y="519" type="line"/>
      <point x="411" y="519" type="line"/>
      <point x="411" y="0" type="line"/>
      <point x="341" y="0" type="line"/>
    </contour>
    <contour>
      <point x="678.371" y="142.334" type="curve" smooth="yes"/>
      <point x="678.371" y="52.355"/>
      <point x="617.145" y="0"/>
      <point x="511.923" y="0" type="curve" smooth="yes"/>
      <point x="356.219" y="0" type="line"/>
      <point x="356.219" y="52.1" type="line"/>
      <point x="498.461" y="51.85" type="line" smooth="yes"/>
      <point x="563.266" y="51.737"/>
      <point x="608.571" y="76.448"/>
      <point x="608.571" y="146.054" type="curve" smooth="yes"/>
      <point x="608.571" y="214.49"/>
      <point x="562.746" y="238.53"/>
      <point x="499.205" y="238.53" type="curve" smooth="yes"/>
      <point x="356.219" y="238.53" type="line"/>
      <point x="356.219" y="290.64" type="line"/>
      <point x="511.741" y="290.64" type="line" smooth="yes"/>
      <point x="611.98" y="290.64"/>
      <point x="678.371" y="231.55"/>
    </contour>
    <contour>
      <point x="341" y="519" type="line"/>
      <point x="411" y="519" type="line"/>
      <point x="411" y="0" type="line"/>
      <point x="341" y="0" type="line"/>
    </contour>
  </outline>
</glyph>
<glyph name="fi" format="2">
  <advance width="574"/>
  <unicode hex="FB01"/>
  <outline>
    <contour>
      <point x="187" y="519" type="curve"/>
      <point x="296" y="519" type="line"/>
      <point x="296" y="464" type="line"/>
      <point x="187" y="464" type="line"/>
      <point x="187" y="0" type="line"/>
      <point x="117" y="0" type="line"/>
      <point x="117" y="464" type="line"/>
      <point x="51" y="464" type="line"/>
      <point x="51" y="519" type="line"/>
      <point x="117" y="519" type="line"/>
      <point x="117" y="578" type="line" smooth="yes"/>
      <point x="117" y="656.048"/>
      <point x="162.462" y="707"/>
      <point x="242" y="707" type="curve" smooth="yes"/>
      <point x="296" y="707" type="line"/>
      <point x="296" y="651" type="line"/>
      <point x="178.337" y="651"/>
      <point x="187" y="632.386"/>
    </contour>
    <contour>
      <point x="420" y="519" type="line"/>
      <point x="489" y="519" type="line"/>
      <point x="489" y="0" type="line"/>
      <point x="420" y="0" type="line"/>
    </contour>
    <contour>
      <point x="418" y="696" type="line"/>
      <point x="492" y="696" type="line"/>
      <point x="492" y="604" type="line"/>
      <point x="418" y="604" type="line"/>
    </contour>
  </outline>
</glyph>
<glyph name="kacyr.loclBGR" format="2">
  <advance width="505"/>
  <anchor x="111" y="707" name="top"/>
  <outline>
    <contour>
      <point x="146" y="707" type="line"/>
      <point x="146" y="0" type="line"/>
      <point x="77" y="0" type="line"/>
      <point x="77" y="707" type="line"/>
    </contour>
    <contour>
      <point x="136.133" y="261.052" type="line"/>
      <point x="136.133" y="267.756" type="line"/>
      <point x="199.896" y="267.756" type="line"/>
      <point x="406.702" y="519" type="line"/>
      <point x="490.702" y="519" type="line"/>
      <point x="270.3" y="261.037" type="line"/>
    </contour>
    <contour>
      <point x="224.526" y="248.092" type="line"/>
      <point x="283.851" y="282.987" type="line"/>
      <point x="486" y="0" type="line"/>
      <point x="401" y="0" type="line"/>
    </contour>
    <contour>
      <point x="130" y="246" type="line"/>
      <point x="130" y="298" type="line"/>
      <point x="260.849" y="298" type="line"/>
      <point x="260.849" y="246" type="line"/>
    </contour>
  </outline>
</glyph>
<glyph name="seven.osf" format="2">
  <advance width="441"/>
  <outline>
    <contour>
      <point x="400" y="519" type="line"/>
      <point x="400" y="451" type="line"/>
      <point x="170" y="-162" type="line"/>
      <point x="95" y="-162" type="line"/>
      <point x="329" y="451" type="line"/>
      <point x="41" y="451" type="line"/>
      <point x="41" y="519" type="line"/>
    </contour>
  </outline>
</glyph>
<glyph name="softcyr.loclBGR" format="2">
  <advance width="515"/>
  <outline>
    <contour>
      <point x="454.371" y="203.758" type="curve" smooth="yes"/>
      <point x="454.371" y="79.035"/>
      <point x="377.291" y="-6"/>
      <point x="264.236" y="-6" type="curve" smooth="yes"/>
      <point x="144.755" y="-6"/>
      <point x="77" y="57.428"/>
      <point x="77" y="169.278" type="curve"/>
      <point x="147" y="169.278" type="line"/>
      <point x="147" y="97.053"/>
      <point x="189.256" y="56.192"/>
      <point x="264.339" y="55.85" type="curve" smooth="yes"/>
      <point x="337.748" y="55.516"/>
      <point x="384.571" y="112.572"/>
      <point x="384.571" y="202.358" type="curve" smooth="yes"/>
      <point x="384.571" y="275.746"/>
      <point x="335.83" y="327.846"/>
      <point x="267.174" y="327.846" type="curve" smooth="yes"/>
      <point x="216.524" y="327.846"/>
      <point x="157.207" y="318.327"/>
      <point x="92.219" y="288.53" type="curve"/>
      <point x="92.219" y="350.64" type="line"/>
      <point x="160.627" y="380.436"/>
      <point x="223.679" y="389.956"/>
      <point x="278.001" y="389.956" type="curve" smooth="yes"/>
      <point x="376.768" y="389.956"/>
      <point x="454.371" y="308.028"/>
    </contour>
    <contour>
      <point x="77" y="519" type="line"/>
      <point x="147" y="519" type="line"/>
      <point x="147" y="169.278" type="line"/>
      <point x="77" y="169.278" type="line"/>
    </contour>
  </outline>
</glyph>
<glyph name="t_t" format="2">
  <advance width="641"/>
  <outline>
    <contour>
      <point x="478" y="464" type="line"/>
      <point x="478" y="132" type="line" smooth="yes"/>
      <point x="478" y="56.484"/>
      <point x="528.657" y="61"/>
      <point x="587" y="61" type="curve"/>
      <point x="587" y="0" type="line"/>
      <point x="535" y="0" type="line" smooth="yes"/>
      <point x="453.741" y="0"/>
      <point x="409" y="48.683"/>
      <point x="409" y="129" type="curve" smooth="yes"/>
      <point x="409" y="464" type="line"/>
      <point x="186" y="464" type="line"/>
      <point x="186" y="132" type="line" smooth="yes"/>
      <point x="186" y="56.714"/>
      <point x="235.687" y="61"/>
      <point x="294" y="61" type="curve"/>
      <point x="294" y="0" type="line"/>
      <point x="242" y="0" type="line" smooth="yes"/>
      <point x="160.741" y="0"/>
      <point x="116" y="48.683"/>
      <point x="116" y="129" type="curve" smooth="yes"/>
      <point x="116" y="464" type="line"/>
      <point x="35" y="464" type="line"/>
      <point x="35" y="519" type="line"/>
      <point x="116" y="519" type="line"/>
      <point x="116" y="638" type="line"/>
      <point x="186" y="671" type="line"/>
      <point x="186" y="519" type="line"/>
      <point x="409" y="519" type="line"/>
      <point x="409" y="638" type="line"/>
      <point x="478" y="671" type="line"/>
      <point x="478" y="519" type="line"/>
      <point x="596" y="519" type="line"/>
      <point x="596" y="464" type="line"/>
    </contour>
  </outline>
</glyph>
<glyph name="tsecyr.loclBGR" format="2">
  <advance width="529"/>
  <outline>
    <component base="n" xScale="-1" yScale="-1" xOffset="535" yOffset="519"/>
    <contour>
      <point x="443.175" y="-170" type="line"/>
      <point x="443.175" y="52" type="line"/>
      <point x="518.175" y="52" type="line"/>
      <point x="518.175" y="-170" type="line"/>
    </contour>
  </outline>
</glyph>
<glyph name="two.dnom" format="2">
  <advance width="328"/>
  <outline>
    <contour>
      <point x="46" y="53" type="line"/>
      <point x="188" y="246" type="line" smooth="yes"/>
      <point x="207.49" y="272.49"/>
      <point x="214" y="287.884"/>
      <point x="214" y="321" type="curve" smooth="yes"/>
      <point x="214" y="352.632"/>
      <point x="196.398" y="377"/>
      <point x="163" y="377" type="curve" smooth="yes"/>
      <point x="116.652" y="377"/>
      <point x="111" y="341.222"/>
      <point x="111" y="304" type="curve"/>
      <point x="43" y="304" type="line"/>
      <point x="43" y="319" type="line" smooth="yes"/>
      <point x="43" y="393.041"/>
      <point x="93.544" y="434"/>
      <point x="165" y="434" type="curve" smooth="yes"/>
      <point x="242.805" y="434"/>
      <point x="285" y="387.774"/>
      <point x="285" y="312" type="curve" smooth="yes"/>
      <point x="285" y="271.001"/>
      <point x="268.219" y="242.874"/>
      <point x="245" y="211" type="curve" smooth="yes"/>
      <point x="135" y="60" type="line"/>
      <point x="286" y="60" type="line"/>
      <point x="286" y="0" type="line"/>
      <point x="46" y="0" type="line"/>
    </contour>
  </outline>
</glyph>
<glyph name="two.numr" format="2">
  <advance width="328"/>
  <outline>
    <contour>
      <point x="46" y="333" type="line"/>
      <point x="188" y="525" type="line" smooth="yes"/>
      <point x="207.38" y="551.204"/>
      <point x="214" y="567.135"/>
      <point x="214" y="600" type="curve" smooth="yes"/>
      <point x="214" y="633.021"/>
      <point x="197.677" y="656"/>
      <point x="163" y="656" type="curve" smooth="yes"/>
      <point x="115.998" y="656"/>
      <point x="111" y="622.197"/>
      <point x="111" y="584" type="curve"/>
      <point x="43" y="584" type="line"/>
      <point x="43" y="599" type="line" smooth="yes"/>
      <point x="43" y="671.594"/>
      <point x="94.9" y="714"/>
      <point x="165" y="714" type="curve" smooth="yes"/>
      <point x="242.572" y="714"/>
      <point x="285" y="667.716"/>
      <point x="285" y="592" type="curve" smooth="yes"/>
      <point x="285" y="552.055"/>
      <point x="267.886" y="521.209"/>
      <point x="245" y="490" type="curve" smooth="yes"/>
      <point x="135" y="340" type="line"/>
      <point x="286" y="340" type="line"/>
      <point x="286" y="280" type="line"/>
      <point x="46" y="280" type="line"/>
    </contour>
  </outline>
</glyph>
<glyph name="two.sups" format="2">
  <advance width="328"/>
  <outline>
    <contour>
      <point x="46" y="494" type="line"/>
      <point x="188" y="686" type="line" smooth="yes"/>
      <point x="207.38" y="712.204"/>
      <point x="214" y="728.135"/>
      <point x="214" y="761" type="curve" smooth="yes"/>
      <point x="214" y="792.632"/>
      <point x="196.398" y="817"/>
      <point x="163" y="817" type="curve" smooth="yes"/>
      <point x="115.37" y="817"/>
      <point x="111" y="782.396"/>
      <point x="111" y="744" type="curve"/>
      <point x="43" y="744" type="line"/>
      <point x="43" y="760" type="line" smooth="yes"/>
      <point x="43" y="833.532"/>
      <point x="94.325" y="874"/>
      <point x="165" y="874" type="curve" smooth="yes"/>
      <point x="243.011" y="874"/>
      <point x="285" y="829.656"/>
      <point x="285" y="753" type="curve" smooth="yes"/>
      <point x="285" y="711.471"/>
      <point x="268.661" y="683.265"/>
      <point x="245" y="651" type="curve" smooth="yes"/>
      <point x="135" y="501" type="line"/>
      <point x="286" y="501" type="line"/>
      <point x="286" y="440" type="line"/>
      <point x="46" y="440" type="line"/>
    </contour>
  </outline>
</glyph>
<glyph name="zero.numr" format="2">
  <advance width="334"/>
  <outline>
    <contour>
      <point x="43" y="425" type="curve" smooth="yes"/>
      <point x="43" y="567" type="line" smooth="yes"/>
      <point x="43" y="650.911"/>
      <point x="74.086" y="714"/>
      <point x="167" y="714" type="curve" smooth="yes"/>
      <point x="261.911" y="714"/>
      <point x="292" y="653.27"/>
      <point x="292" y="567" type="curve" smooth="yes"/>
      <point x="292" y="425" type="line" smooth="yes"/>
      <point x="292" y="338.36"/>
      <point x="264.339" y="273"/>
      <point x="167" y="273" type="curve" smooth="yes"/>
      <point x="70.306" y="273"/>
      <point x="43" y="339.217"/>
    </contour>
    <contour>
      <point x="221" y="428" type="curve" smooth="yes"/>
      <point x="221" y="561" type="line" smooth="yes"/>
      <point x="221" y="600.894"/>
      <point x="219.385" y="653"/>
      <point x="167" y="653" type="curve" smooth="yes"/>
      <point x="112.862" y="653"/>
      <point x="113" y="601.933"/>
      <point x="113" y="561" type="curve" smooth="yes"/>
      <point x="113" y="428" type="line" smooth="yes"/>
      <point x="113" y="387.255"/>
      <point x="112.572" y="333"/>
      <point x="167" y="333" type="curve" smooth="yes"/>
      <point x="221.49" y="333"/>
      <point x="221" y="387.072"/>
    </contour>
  </outline>
</glyph>
<glyph name="zero.osf" format="2">
  <advance width="504"/>
  <outline>
    <contour>
      <point x="68" y="216" type="curve" smooth="yes"/>
      <point x="68" y="307" type="line" smooth="yes"/>
      <point x="68" y="433.125"/>
      <point x="112.353" y="529"/>
      <point x="252" y="529" type="curve" smooth="yes"/>
      <point x="392.133" y="529"/>
      <point x="437" y="433.924"/>
      <point x="437" y="307" type="curve" smooth="yes"/>
      <point x="437" y="216" type="line" smooth="yes"/>
      <point x="437" y="88.762"/>
      <point x="393.793" y="-10"/>
      <point x="252" y="-10" type="curve" smooth="yes"/>
      <point x="110.711" y="-10"/>
      <point x="68" y="89.571"/>
    </contour>
    <contour>
      <point x="362" y="230" type="curve" smooth="yes"/>
      <point x="362" y="288" type="line" smooth="yes"/>
      <point x="362" y="368.52"/>
      <point x="354.689" y="461"/>
      <point x="252" y="461" type="curve" smooth="yes"/>
      <point x="149.311" y="461"/>
      <point x="142" y="368.52"/>
      <point x="142" y="288" type="curve" smooth="yes"/>
      <point x="142" y="230" type="line" smooth="yes"/>
      <point x="142" y="149.48"/>
      <point x="149.311" y="57"/>
      <point x="252" y="57" type="curve" smooth="yes"/>
      <point x="354.689" y="57"/>
      <point x="362" y="149.48"/>
    </contour>
  </outline>
</glyph>
